<svg width="32" height="32" viewBox="0 0 32 32" fill="none" xmlns="http://www.w3.org/2000/svg">
<path d="M1.18988 1.18988C2.77638 -0.396626 5.34862 -0.396626 6.93512 1.18988L15.553 9.80774L24.1708 1.18988C25.7574 -0.396626 28.3296 -0.396626 29.9161 1.18988C31.5026 2.77638 31.5026 5.34862 29.9161 6.93512L21.2982 15.553L29.9161 24.1709C31.5026 25.7574 31.5026 28.3296 29.9161 29.9161C28.3296 31.5026 25.7574 31.5026 24.1709 29.9161L15.553 21.2982L6.93512 29.9161C5.34862 31.5026 2.77638 31.5026 1.18988 29.9161C-0.396626 28.3296 -0.396626 25.7574 1.18988 24.1709L9.80774 15.553L1.18988 6.93512C-0.396626 5.34862 -0.396626 2.77638 1.18988 1.18988Z" fill="white"/>
</svg>
